<svg xmlns="http://www.w3.org/2000/svg" viewBox="0 0 1400 760">
<rect width="1400" height="760" fill="#071928"/>
<rect x="30" y="30" width="1340" height="700" rx="26" fill="#0b2233" stroke="#46e6ff" stroke-width="3"/>
<text x="60" y="88" fill="#f5fbff" font-family="Arial" font-size="42" font-weight="700">CONSEQUENCE ADMISSION BEFORE EXECUTION BINDS</text>
<text x="62" y="122" fill="#a8c7d6" font-family="Arial" font-size="18" letter-spacing="3">THE ELYRIA CONSEQUENCE TWIN</text>
<rect x="60" y="165" width="190" height="500" rx="12" fill="#0c2a38" stroke="#5defff"/>
<text x="90" y="225" fill="#dffbff" font-family="Arial" font-size="21" font-weight="700">FULL-STACK</text>
<text x="90" y="255" fill="#dffbff" font-family="Arial" font-size="21" font-weight="700">BUYER-FACING</text>
<text x="90" y="285" fill="#dffbff" font-family="Arial" font-size="21" font-weight="700">RUNTIME</text>
<text x="90" y="315" fill="#dffbff" font-family="Arial" font-size="21" font-weight="700">PROOF SURFACE</text>
<text x="90" y="430" fill="#8fffc4" font-family="Arial" font-size="24" font-weight="700">ELYRIA</text>
<text x="90" y="462" fill="#8fffc4" font-family="Arial" font-size="24" font-weight="700">CONSEQUENCE</text>
<text x="90" y="494" fill="#8fffc4" font-family="Arial" font-size="24" font-weight="700">TWIN</text>
<g fill="#0c2a38" stroke="#5defff"><rect x="310" y="160" width="210" height="58" rx="8"/><rect x="310" y="235" width="210" height="58" rx="8"/><rect x="310" y="310" width="210" height="58" rx="8"/><rect x="310" y="385" width="210" height="58" rx="8"/><rect x="310" y="460" width="210" height="58" rx="8"/><rect x="310" y="535" width="210" height="58" rx="8"/><rect x="310" y="610" width="210" height="58" rx="8"/></g>
<g fill="#dffbff" font-family="Arial" font-size="20" font-weight="700"><text x="334" y="196">AUTHORITY</text><text x="334" y="271">STANDING</text><text x="334" y="346">EVIDENCE</text><text x="334" y="421">CUSTODY</text><text x="334" y="496">REFUSAL LOGIC</text><text x="334" y="571">SIGNED RECEIPT</text><text x="334" y="646">REPLAY BASIS</text></g>
<g stroke="#00ff9d" stroke-width="6" fill="none"><path d="M520 190 C600 210 660 270 720 350"/><path d="M520 265 C600 270 665 310 720 350"/><path d="M520 340 C610 342 665 345 720 350"/><path d="M520 415 C610 405 665 375 720 350"/><path d="M520 490 C600 465 665 400 720 350"/><path d="M520 565 C600 515 665 430 720 350"/><path d="M520 640 C600 565 665 445 720 350"/></g>
<rect x="650" y="295" width="210" height="120" rx="16" fill="#3b0b15" stroke="#ff5870" stroke-width="3"/>
<text x="682" y="348" fill="#ff6b83" font-family="Arial" font-size="22" font-weight="700">PROPOSED</text>
<text x="682" y="378" fill="#ff6b83" font-family="Arial" font-size="22" font-weight="700">MOVEMENT</text>
<rect x="650" y="465" width="260" height="72" rx="12" fill="#092133" stroke="#4defff"/>
<text x="678" y="494" fill="#b9eeff" font-family="Arial" font-size="13" font-weight="700">ELYRIA CONSEQUENCE TWIN</text>
<text x="678" y="522" fill="#dffbff" font-family="Arial" font-size="22" font-weight="700">BINDING PROOF SURFACE</text>
<rect x="890" y="145" width="250" height="500" rx="20" fill="#102738" stroke="#6ef3ff" stroke-width="3"/>
<text x="948" y="330" fill="#a9d8e9" font-family="Arial" font-size="17" font-weight="700">AUTHORITY</text>
<text x="948" y="360" fill="#a9d8e9" font-family="Arial" font-size="17" font-weight="700">EVIDENCE</text>
<text x="948" y="390" fill="#a9d8e9" font-family="Arial" font-size="17" font-weight="700">CUSTODY</text>
<text x="948" y="420" fill="#a9d8e9" font-family="Arial" font-size="17" font-weight="700">REPLAY</text>
<path d="M745 320 C690 220 630 160 570 120" stroke="#ff3659" stroke-width="5" fill="none" stroke-dasharray="8 8"/>
<text x="575" y="118" fill="#ff6b83" font-family="Arial" font-size="22" font-weight="700">THE BLACK PATH</text>
<g stroke="#00ff9d" stroke-width="6" fill="none"><path d="M1140 350 C1210 310 1260 265 1325 240"/><path d="M1140 350 C1210 350 1260 350 1325 350"/><path d="M1140 350 C1210 390 1260 435 1325 480"/></g>
<text x="1180" y="310" fill="#8fffc4" font-family="Arial" font-size="24" font-weight="700">ADMITTED</text>
<text x="1180" y="340" fill="#8fffc4" font-family="Arial" font-size="24" font-weight="700">AND EXECUTED</text>
<text x="1180" y="370" fill="#8fffc4" font-family="Arial" font-size="24" font-weight="700">REALITY</text>
<rect x="1160" y="535" width="190" height="110" rx="10" fill="#092133" stroke="#4defff"/>
<text x="1182" y="568" fill="#a9d8e9" font-family="Arial" font-size="15" font-weight="700">CONSEQUENCE</text>
<text x="1182" y="592" fill="#a9d8e9" font-family="Arial" font-size="15" font-weight="700">EXPOSURE GRAPH</text>
<path d="M1188 623 C1225 560 1288 565 1322 625" stroke="#ff4b67" stroke-width="4" fill="none"/>
<text x="60" y="710" fill="#a9d8e9" font-family="Arial" font-size="16">Full-stack runtime proof surface • boundary-gated movement • signed receipt • replay verification</text>
</svg>
